<?xml version="1.0" encoding="utf-8"?>
<!-- Generator: Adobe Illustrator 18.1.0, SVG Export Plug-In . SVG Version: 6.00 Build 0)  -->
<!DOCTYPE svg PUBLIC "-//W3C//DTD SVG 1.1//EN" "http://www.w3.org/Graphics/SVG/1.1/DTD/svg11.dtd">
<svg version="1.1" id="Layer_1" xmlns="http://www.w3.org/2000/svg" xmlns:xlink="http://www.w3.org/1999/xlink" x="0px" y="0px"
	 viewBox="0 0 185 188" enable-background="new 0 0 185 188" xml:space="preserve">
<g opacity="0.4">
	<g>
		<g>
			<path d="M79.3,96.8c5.4-9.5,24.6-16.9,47.4-16.9h9.8v11.4c0,3.2,3.5,5.1,6.2,3.4l39-25.1c2.9-1.9,2.9-6.1,0-7.9l-39-25.1
				c-2.7-1.7-6.2,0.2-6.2,3.4v11h-9.8c-25.2,0-45.9,20-48.6,45.6C78,97.3,78.9,97.4,79.3,96.8z"/>
		</g>
	</g>
	<g>
		<g>
			<path d="M121.8,173.8c2.1-1.2,3.7-3.1,4.3-5.6c0.7-2.5,0.3-5-0.9-7L107.1,129c-1.2-2.1-3.1-3.7-5.6-4.4c-2.5-0.7-5-0.3-7,0.9
				l-12.2,6.9c-5.9,3.3-25.8-7.6-37.5-28.3c-11.7-20.7-10.9-43.4-5-46.7l12.2-6.9c2-1.2,3.7-3.1,4.3-5.6c0.7-2.5,0.3-5-0.9-7
				L37.3,5.7c-1.2-2.1-3.1-3.7-5.6-4.4c-2.5-0.7-5-0.3-7,0.9L11.9,9.5l0,0C-5,20.3-3.1,69.4,23.4,116.3C49.9,163.1,91,190,109,181
				l0,0L121.8,173.8z"/>
		</g>
	</g>
</g>
<g>
	<g>
		<g>
			<path fill="#FFFFFF" d="M79.3,101.4c5.4-9.5,24.6-16.9,47.4-16.9h9.8v11.4c0,3.2,3.5,5.1,6.2,3.4l39-25.1c2.9-1.9,2.9-6.1,0-7.9
				l-39-25.1c-2.7-1.7-6.2,0.2-6.2,3.4v11h-9.8c-25.2,0-45.9,20-48.6,45.6C78,101.8,78.9,102,79.3,101.4z"/>
		</g>
	</g>
	<g>
		<g>
			<path fill="#FFFFFF" d="M121.8,178.3c2.1-1.2,3.7-3.1,4.3-5.6c0.7-2.5,0.3-5-0.9-7l-18.2-32.2c-1.2-2.1-3.1-3.7-5.6-4.4
				c-2.5-0.7-5-0.3-7,0.9L82.3,137c-5.9,3.3-25.8-7.6-37.5-28.3c-11.7-20.7-10.9-43.4-5-46.7L52.1,55c2-1.2,3.7-3.1,4.3-5.6
				c0.7-2.5,0.3-5-0.9-7L37.3,10.3c-1.2-2.1-3.1-3.7-5.6-4.4c-2.5-0.7-5-0.3-7,0.9L11.9,14l0,0C-5,24.8-3.1,74,23.4,120.8
				c26.5,46.8,67.7,73.8,85.7,64.7l0,0L121.8,178.3z"/>
		</g>
	</g>
</g>
</svg>
