<?xml version="1.0" encoding="utf-8"?>
<!-- Generator: Adobe Illustrator 18.1.0, SVG Export Plug-In . SVG Version: 6.00 Build 0)  -->
<!DOCTYPE svg PUBLIC "-//W3C//DTD SVG 1.1//EN" "http://www.w3.org/Graphics/SVG/1.1/DTD/svg11.dtd">
<svg version="1.1" id="Layer_1" xmlns="http://www.w3.org/2000/svg" xmlns:xlink="http://www.w3.org/1999/xlink" x="0px" y="0px"
	 viewBox="0 0 227 189.5" enable-background="new 0 0 227 189.5" xml:space="preserve">
<g>
	<g opacity="0.4">
		<path d="M212.5,141.9H15.2L1.1,170.1c0,7.8,6.3,14.1,14.1,14.1h197.3c7.8,0,14.1-6.3,14.1-14.1L212.5,141.9z M135,177.1H92.7
			l-7-7.1h56.4L135,177.1z M29.3,15h169.1v112.8h14.1V15c0-7.8-6.3-14.1-14.1-14.1H29.3c-7.8,0-14.1,6.3-14.1,14.1v112.8h14.1V15z"
			/>
		<polygon points="113.9,89.4 94.6,70.2 105.6,59.2 57.5,43.2 73.5,91.3 84.5,80.4 103.7,99.6 		"/>
	</g>
	<g>
		<path fill="#FFFFFF" d="M212.5,146.8H15.2L1.1,175c0,7.8,6.3,14.1,14.1,14.1h197.3c7.8,0,14.1-6.3,14.1-14.1L212.5,146.8z
			 M135,182H92.7l-7-7.1h56.4L135,182z M29.3,19.9h169.1v112.8h14.1V19.9c0-7.8-6.3-14.1-14.1-14.1H29.3c-7.8,0-14.1,6.3-14.1,14.1
			v112.8h14.1V19.9z"/>
		<polygon fill="#FFFFFF" points="113.9,94.3 94.6,75.1 105.6,64.1 57.5,48.1 73.5,96.2 84.5,85.2 103.7,104.5 		"/>
	</g>
</g>
</svg>
